<svg width="183" height="20" viewBox="0 0 183 20" fill="none" xmlns="http://www.w3.org/2000/svg">
<path d="M18.5702 10.2867C19.9883 10.3598 21.2212 10.7601 22.2746 11.4835C23.3223 12.2109 23.849 13.2076 23.849 14.4776C23.849 16.0362 23.0734 17.2792 21.5164 18.2067C19.9594 19.1303 17.7251 19.5959 14.8021 19.5959H0.563232V1.36232H14.7674C17.2795 1.36232 19.288 1.81643 20.8045 2.72465C22.321 3.63286 23.0734 4.83741 23.0734 6.34212C23.0734 7.48509 22.5988 8.3933 21.6437 9.06292C20.6887 9.73254 19.6642 10.1058 18.576 10.1789V10.2867H18.5702ZM7.31802 8.89744H13.2104C14.2175 8.89744 15.0221 8.71272 15.624 8.33943C16.226 7.96613 16.527 7.47354 16.527 6.8578C16.527 6.29594 16.2318 5.84183 15.6472 5.49548C15.0626 5.14912 14.3333 4.9798 13.4593 4.9798H7.31802V8.89744ZM13.6213 15.9746C14.6864 15.9746 15.5083 15.7937 16.0987 15.432C16.6833 15.0702 16.9785 14.5699 16.9785 13.935C16.9785 13.3346 16.6775 12.8613 16.0755 12.5072C15.4735 12.1532 14.6979 11.9761 13.7429 11.9761H7.31802V15.9746H13.6213ZM47.2969 19.5921H40.7505V18.2875C39.1124 19.4304 37.0113 20 34.4472 20C32.0451 20 30.1176 19.4766 28.6532 18.4337C27.1946 17.3908 26.4653 16.0169 26.4653 14.3121V5.93419H32.9712V13.3885C32.9712 14.1851 33.3011 14.8355 33.9552 15.3358C34.6092 15.8361 35.4543 16.0824 36.4904 16.0824C37.8274 16.0824 38.8693 15.7706 39.6218 15.1434C40.3742 14.5161 40.7447 13.5617 40.7447 12.2725V5.93419H47.2911V19.5921H47.2969ZM67.4629 19.5921H50.1273V18.7724L58.277 9.39003H50.3299V5.93419H67.3645V6.7539L59.2147 16.1362H67.4629V19.5921ZM87.6288 19.5921H70.2933V18.7724L78.443 9.39003H70.4901V5.93419H87.5247V6.7539L79.3749 16.1362H87.623V19.5921H87.6288ZM97.3645 9.14374H109.207V13.0614H97.3645V19.5921H90.6097V1.36232H110.295V5.30691H97.3645V9.14374ZM157.185 13.8772H142.124C142.512 15.5705 144.417 16.5172 147.299 16.5172C149.568 16.5172 151.808 15.9246 153.487 15.0664L155.999 17.9604C153.701 19.2727 150.72 20 147.299 20C140.411 20 135.7 17.2099 135.7 12.7612C135.7 10.6561 136.753 8.92438 138.848 7.56205C140.949 6.19973 143.525 5.52242 146.581 5.52242C149.556 5.52242 152.051 6.18434 154.071 7.50818C156.091 8.83202 157.127 10.583 157.179 12.7612V13.8772H157.185ZM143.925 9.63248C143.108 10.0135 142.547 10.5407 142.246 11.2103H150.72C150.419 10.5022 149.904 9.96729 149.163 9.60554C148.428 9.24379 147.565 9.06292 146.587 9.06292C145.632 9.06292 144.746 9.25149 143.925 9.63248ZM133.24 13.8772H118.179C118.567 15.5705 120.471 16.5172 123.353 16.5172C125.622 16.5172 127.862 15.9246 129.541 15.0664L132.053 17.9604C129.755 19.2727 126.774 20 123.353 20C116.465 20 111.754 17.2099 111.754 12.7612C111.754 10.6561 112.807 8.92438 114.903 7.56205C117.004 6.19973 119.58 5.52242 122.636 5.52242C125.611 5.52242 128.105 6.18434 130.126 7.50818C132.146 8.83202 133.182 10.583 133.234 12.7612V13.8772H133.24ZM119.979 9.63248C119.163 10.0135 118.601 10.5407 118.3 11.2103H126.774C126.473 10.5022 125.958 9.96729 125.217 9.60554C124.482 9.24379 123.62 9.06292 122.641 9.06292C121.681 9.06292 120.795 9.25149 119.979 9.63248ZM182.52 19.5921H175.974V18.503C174.307 19.4997 172.182 20 169.589 20C166.805 20 164.438 19.3227 162.487 17.9719C160.537 16.6211 159.558 14.8817 159.558 12.7612C159.558 10.6561 160.537 8.92438 162.487 7.56205C164.438 6.19973 166.805 5.52242 169.589 5.52242C172.182 5.52242 174.312 6.02271 175.974 7.01943V0H182.52V19.5921ZM174.48 15.3088C175.476 14.6469 175.974 13.8003 175.974 12.7651C175.974 11.7491 175.476 10.9063 174.48 10.2328C173.485 9.56321 172.304 9.22455 170.938 9.22455C169.491 9.22455 168.304 9.55551 167.378 10.2174C166.452 10.8794 165.989 11.726 165.989 12.7612C165.989 13.8118 166.452 14.6662 167.378 15.3204C168.304 15.9746 169.491 16.3017 170.938 16.3017C172.304 16.3017 173.485 15.9708 174.48 15.3088Z" fill="#008080"/>
</svg>
