<svg width="30" height="30" viewBox="0 0 30 30" fill="none" xmlns="http://www.w3.org/2000/svg">
<path d="M21.25 5.625C21.25 6.66054 20.4105 7.5 19.375 7.5C18.3395 7.5 17.5 6.66054 17.5 5.625C17.5 4.58946 18.3395 3.75 19.375 3.75C20.4105 3.75 21.25 4.58946 21.25 5.625Z" stroke="#008080" stroke-width="1.5"/>
<path d="M18.75 26.251L17.9199 22.981C17.6451 21.8989 17.0769 20.9105 16.2759 20.1218L14.375 18.2498M14.375 18.2498C13.1153 17.2574 12.4854 16.7612 12.2414 16.098C12.1327 15.8025 12.0808 15.4892 12.0884 15.1746C12.1054 14.4681 12.5415 13.7953 13.4136 12.4495L15 10.0017M14.375 18.2498L18.75 11.5968M7.5 13.9418C8.75 11.4796 10.6721 10.0529 15 10.0017M15 10.0017C15.2733 9.99846 15.6805 9.99749 16.0872 9.99756C16.7184 9.99766 17.0339 9.99773 17.2853 10.1152C17.5366 10.2326 17.7945 10.5407 18.3103 11.1568C18.458 11.3334 18.6098 11.4916 18.75 11.5968M18.75 11.5968C20.1934 12.6791 22.4534 13.1151 25 10.2489" stroke="#008080" stroke-width="1.5" stroke-linecap="round" stroke-linejoin="round"/>
<path d="M5 22.1629L5.84777 22.3645C8.00829 22.8785 10.254 21.8955 11.25 20" stroke="#008080" stroke-width="1.5" stroke-linecap="round" stroke-linejoin="round"/>
</svg>
